<?xml version="1.0" standalone="no"?>
<!DOCTYPE svg PUBLIC "-//W3C//DTD SVG 1.1//EN"
  "http://www.w3.org/Graphics/SVG/1.1/DTD/svg11.dtd">
<svg width="340" height="340" version="1.1"
     xmlns="http://www.w3.org/2000/svg" xmlns:xlink= "http://www.w3.org/1999/xlink">
     <style>
         .block {
            stroke-width: 0;
         }

         .line {
            stroke: white;
            stroke-width: 3;
            fill: transparent;
         }

         .p1 .block-1 {
            fill: #0D47A1;
         }
         .p1 .block-2 {
            fill: #1E88E5;
         }

         .p2 .block-1 {
            fill: #2196F3;
         }
         .p2 .block-2 {
            fill: #1565C0;
         }

         .p3 .block-1 {
            fill: #1976D2;
         }
         .p3 .block-2 {
            fill: #0D47A1;
         }

         .p4 .block-1 {
            fill: #1E88E5;
         }
         .p4 .block-2 {
            fill: #2196F3;
         }

         .p5 .block-1 {
            fill: #1565C0;
         }
         .p5 .block-2 {
            fill: #1976D2;
         }
     </style>
     <g transform="translate(120 20)">
         <g class='p1' transform="rotate(0)" transform-origin="25 25">
             <path class="block block-1" d="M30 0 H 60 L 100 115 L 76 135 Z" />
             <path class="block block-2" d="M30 0 L 76 135 L 52 152 L 30 88 H 0 Z" />
             <path class="line" d="M30 0 H 60 L 100 115 L 52 152 L 30 88 H 0 Z" />
             <path class="line" d="M30 0 L 76 135" />
         </g>
         <g class='p2' transform="translate(174 60) rotate(72)">
             <path class="block block-1" d="M30 0 H 60 L 100 115 L 76 135 Z" />
             <path class="block block-2" d="M30 0 L 76 135 L 52 152 L 30 88 H 0 Z" />
             <path class="line" d="M30 0 H 60 L 100 115 L 52 152 L 30 88 H 0 Z" />
             <path class="line" d="M30 0 L 76 135" />
         </g>
         <g class='p3' transform="translate(171 244) rotate(144)">
             <path class="block block-1" d="M30 0 H 60 L 100 115 L 76 135 Z" />
             <path class="block block-2" d="M30 0 L 76 135 L 52 152 L 30 88 H 0 Z" />
             <path class="line" d="M30 0 H 60 L 100 115 L 52 152 L 30 88 H 0 Z" />
             <path class="line" d="M30 0 L 76 135" />
         </g>
         <g class='p4' transform="translate(-6 298) rotate(216)">
             <path class="block block-1" d="M30 0 H 60 L 100 115 L 76 135 Z" />
             <path class="block block-2" d="M30 0 L 76 135 L 52 152 L 30 88 H 0 Z" />
             <path class="line" d="M30 0 H 60 L 100 115 L 52 152 L 30 88 H 0 Z" />
             <path class="line" d="M30 0 L 76 135" />
         </g>
         <g class='p5' transform="translate(-111 147) rotate(288)">
             <path class="block block-1" d="M30 0 H 60 L 100 115 L 76 135 Z" />
             <path class="block block-2" d="M30 0 L 76 135 L 52 152 L 30 88 H 0 Z" />
             <path class="line" d="M30 0 H 60 L 100 115 L 52 152 L 30 88 H 0 Z" />
             <path class="line" d="M30 0 L 76 135" />
         </g>
    </g>
</svg>
