<?xml version="1.0" standalone="no"?>
<!DOCTYPE svg PUBLIC "-//W3C//DTD SVG 1.1//EN" "http://www.w3.org/Graphics/SVG/1.1/DTD/svg11.dtd">
<svg width="1200" height="1200" version="1.1" xmlns="http://www.w3.org/2000/svg" xmlns:xlink= "http://www.w3.org/1999/xlink">
    <style>
        path {
            stroke: white;
            stroke-width: 6px;
        }
    </style>
    <g transform="">
        <g transform="rotate(0, 600, 594)">
            <path fill="#0D47A1" d="M 550 79.57 H 650 L 780.90 482.44 L 700 541.22 Z"/>
            <path fill="#1E88E5" d="M 550 79.57 L 450 387.34 H 550 L 619.10 600 L 700 541.22 Z"/>
        </g>
        <g transform="rotate(72, 600, 594)">
            <path fill="#2196F3" d="M 550 79.57 H 650 L 780.90 482.44 L 700 541.22 Z"/>
            <path fill="#1565C0" d="M 550 79.57 L 450 387.34 H 550 L 619.10 600 L 700 541.22 Z"/>
        </g>
        <g transform="rotate(144, 600, 594)">
            <path fill="#1976D2" d="M 550 79.57 H 650 L 780.90 482.44 L 700 541.22 Z"/>
            <path fill="#0D47A1" d="M 550 79.57 L 450 387.34 H 550 L 619.10 600 L 700 541.22 Z"/>
        </g>
        <g transform="rotate(216, 600, 594)">
            <path fill="#1E88E5" d="M 550 79.57 H 650 L 780.90 482.44 L 700 541.22 Z"/>
            <path fill="#2196F3" d="M 550 79.57 L 450 387.34 H 550 L 619.10 600 L 700 541.22 Z"/>
        </g>
        <g transform="rotate(288, 600, 594)">
            <path fill="#1565C0" d="M 550 79.57 H 650 L 780.90 482.44 L 700 541.22 Z"/>
            <path fill="#1976D2" d="M 550 79.57 L 450 387.34 H 550 L 619.10 600 L 700 541.22 Z"/>
        </g>

        <animateTransform
            attributeName="transform"
            begin="0s"
            dur="20s"
            type="rotate"
            from="0 600, 594"
            to="360 600, 594"
            repeatCount="indefinite"
        />
    </g>
</svg>
